<svg viewBox="0 0 40 40" xmlns="http://www.w3.org/2000/svg" role="img" aria-label="遠山郷応援会">
  <!-- 陽光 (光条のサンバースト) -->
  <path d="M27 8L28.32 10.07L30.5 8.94L30.61 11.39L33.06 11.5L31.93 13.68L34 15L31.93 16.32L33.06 18.5L30.61 18.61L30.5 21.06L28.32 19.93L27 22L25.68 19.93L23.5 21.06L23.39 18.61L20.94 18.5L22.07 16.32L20 15L22.07 13.68L20.94 11.5L23.39 11.39L23.5 8.94L25.68 10.07Z" fill="#ffc24b" />
  <!-- 奥の稜線 -->
  <path d="M2 33L13 11L25 33Z" fill="#44b08c" />
  <!-- 主峰 -->
  <path d="M8 33L20 15L32 33Z" fill="#1f855f" />
  <!-- 手前の頂 (コーラル) -->
  <path d="M23 33L30 20L38 33Z" fill="#f06b4b" />
</svg>
